<svg width="40" height="40" viewBox="0 0 40 40" fill="none" xmlns="http://www.w3.org/2000/svg">
  <rect width="40" height="40" rx="8" fill="url(#gradient)"/>
  <path d="M10 20C10 15 15 10 20 10C25 10 30 15 30 20C30 25 25 30 20 30C15 30 10 25 10 20Z" fill="white" fill-opacity="0.9"/>
  <path d="M15 20C15 17.5 17.5 15 20 15C22.5 15 25 17.5 25 20C25 22.5 22.5 25 20 25C17.5 25 15 22.5 15 20Z" fill="url(#gradient)"/>
  <defs>
    <linearGradient id="gradient" x1="0" y1="0" x2="40" y2="40" gradientUnits="userSpaceOnUse">
      <stop stop-color="#3b82f6"/>
      <stop offset="1" stop-color="#6366f1"/>
    </linearGradient>
  </defs>
</svg>
